inDegrees=no
num_controls=7
num_derivatives=13
num_iterations=179
num_multipliers=7
num_parameters=0
num_slacks=7
num_states=26
objective=5.981055
objective_accelerations=0.547365
objective_balance=0.062825
objective_effort=0.465123
objective_height=4.812236
objective_ligament=0.093506
solver_duration=1853.071964
status=Solve_Succeeded
success=true
DataType=double
version=3
OpenSimVersion=4.4-2022-07-23-0e9fedc
endheader
time	/jointset/ground_pelvis/pelvis_tilt/value	/jointset/ground_pelvis/pelvis_tx/value	/jointset/ground_pelvis/pelvis_ty/value	/jointset/hip_l/hip_flexion_l/value	/jointset/hip_l/hip_adduction_l/value	/jointset/hip_l/hip_rotation_l/value	/jointset/back/lumbar_extension/value	/jointset/patellofemoral_l/patellar_flexion_l/value	/jointset/knee_l/knee_flexion_l/value	/jointset/knee_l/knee_adduction_l/value	/jointset/knee_l/knee_rotation_l/value	/jointset/ankle_l/ankle_angle_l/value	/jointset/subtalar_l/subtalar_angle_l/value	/jointset/ground_pelvis/pelvis_tilt/speed	/jointset/ground_pelvis/pelvis_tx/speed	/jointset/ground_pelvis/pelvis_ty/speed	/jointset/hip_l/hip_flexion_l/speed	/jointset/hip_l/hip_adduction_l/speed	/jointset/hip_l/hip_rotation_l/speed	/jointset/back/lumbar_extension/speed	/jointset/patellofemoral_l/patellar_flexion_l/speed	/jointset/knee_l/knee_flexion_l/speed	/jointset/knee_l/knee_adduction_l/speed	/jointset/knee_l/knee_rotation_l/speed	/jointset/ankle_l/ankle_angle_l/speed	/jointset/subtalar_l/subtalar_angle_l/speed	/forceset/tau_hip_flexion_l	/forceset/tau_hip_adduction_l	/forceset/tau_hip_rotation_l	/forceset/tau_knee_flexion_l	/forceset/tau_ankle_angle_l	/forceset/tau_subtalar_angle_l	/forceset/tau_lumbar_extension	lambda_cid13_p0	lambda_cid13_p1	lambda_cid13_p2	lambda_cid13_p3	lambda_cid13_p4	lambda_cid13_p5	lambda_cid14_p0	/jointset/ground_pelvis/pelvis_tilt/accel	/jointset/ground_pelvis/pelvis_tx/accel	/jointset/ground_pelvis/pelvis_ty/accel	/jointset/hip_l/hip_flexion_l/accel	/jointset/hip_l/hip_adduction_l/accel	/jointset/hip_l/hip_rotation_l/accel	/jointset/back/lumbar_extension/accel	/jointset/patellofemoral_l/patellar_flexion_l/accel	/jointset/knee_l/knee_flexion_l/accel	/jointset/knee_l/knee_adduction_l/accel	/jointset/knee_l/knee_rotation_l/accel	/jointset/ankle_l/ankle_angle_l/accel	/jointset/subtalar_l/subtalar_angle_l/accel	gamma_cid13_p0	gamma_cid13_p1	gamma_cid13_p2	gamma_cid13_p3	gamma_cid13_p4	gamma_cid13_p5	gamma_cid14_p0
0	-0.0368226939632287	0.05667757237307357	0.9203415937238145	0.3085811930696054	-0.295640435796332	-0.3016072176925784	-0.3879500408040475	0.2499276582270842	0.249927658227084	-0.1745328539810744	-0.174532897175905	-0.0008036543073733089	0.000437644742654092	0	0	0	0	0	0	0	0	0	0	0	0	0	0.08126104615394095	-0.06220663456751128	-0.02424219553239217	-0.2788941458881591	0.2553095290167524	-0.01924390046114528	0.002546452926683524	38.46470198021455	-0.4441123575574399	1.977333451844379	-13.55796681342377	-627.683619373498	-76.31352612883556	-23.19698163447492	-0.5643506909732392	-1.499102660762889	-0.8284247999990582	8.253845358877626	-0.7934721650295663	3.40108678655357	-6.92144741873212	9.621372033722555	9.621372033722565	1.452237895164313	-0.02460840601755635	2.550000810992453	0.01777777085466175	-8.874686184852643e-09	2.134824878011607e-07	5.426543966596334e-08	1.347309194641706e-08	6.267089655380799e-08	6.856973567317215e-09	1.335291976876911e-08
0.01	-0.03684772536065338	0.05660355616535422	0.9203010491389584	0.3089836687862542	-0.2956803615670202	-0.3014364194595406	-0.38829569964501	0.2503995797121127	0.2503995797121125	-0.1744640518555788	-0.1745307448657888	-0.0006789511574139412	0.0004372958343511534	-0.004986198975550156	-0.01472530296067785	-0.008084618126536944	0.08013570216053327	-0.007962103341921789	0.03396066910863307	-0.06876691495935722	0.09399186335627285	0.09399186335627285	0.01366980401756571	0.0003731426863878822	0.02484739962732092	-7.623233594215815e-05	0.07663973729343111	-0.07338634621070833	-0.02348199931669179	-0.2745622019561944	0.2459016794223315	-0.005226099296195504	0.00673911496522731	35.87482543695198	-6.00063289806249	2.774165968532961	-13.11718920571265	-629.7677544586041	-87.67985844045167	-23.20230578273673	-0.4627498161847322	-1.447550631635411	-0.7948229580965707	7.839509859960884	-0.7941649963277039	3.363713339723034	-6.7995855495582	9.229225768585327	9.229225768585319	1.310801440931428	0.05967939095546478	2.438128987948729	-0.02133129565347109	-3.629968726570161e-08	1.787024790571097e-07	1.394927104711591e-07	3.301392462776243e-08	-3.566354431105338e-08	-6.204528489150305e-08	6.230443232721782e-10
0.02	-0.0369220178109015	0.05638462562444504	0.9201803898450136	0.3101767169675722	-0.2957992254866383	-0.3009319832620755	-0.3893180820385703	0.2517996462871049	0.2517996462871049	-0.1742612617327317	-0.174526580371811	-0.0003085701213120049	0.0004359830907218292	-0.00985221056465271	-0.02898286663796514	-0.01602294181769687	0.1581144929338548	-0.01578762978601236	0.06672759288546048	-0.135344710519541	0.1856290179927728	0.1856290179927728	0.02679759947028057	0.0004024367723159231	0.04913557722851452	-0.0001927670652769953	0.07201842843292121	-0.08456605785390531	-0.0227218031009911	-0.2702302580242298	0.2364938298279105	0.008791701868754347	0.01093177700377108	33.35947333040669	-11.56985467715084	3.572627462537836	-12.83747753468369	-630.7690109353052	-98.95170794804984	-23.2180596127932	-0.5403132136837133	-1.405554804084783	-0.7991659129236545	7.822463081435277	-0.7661567854633236	3.162337720192441	-6.483623538897435	9.150430289767984	9.150430289767993	1.343836182194143	-0.0933781261095253	2.438156405766983	0.009717292176124563	-6.372468834655059e-08	1.439224703130587e-07	2.247199812763549e-07	5.25547573091078e-08	-1.339979851759147e-07	-1.309475433503233e-07	-1.210683112222475e-08
0.03	-0.03704423649206329	0.05602569251084544	0.9199809623339585	0.3121382121633804	-0.2959953166474086	-0.3001060536043937	-0.3909937226178097	0.2541038808460894	0.2541038808460894	-0.1739296607117378	-0.1745236857040393	0.0003020181271482659	0.0004336939384118752	-0.01454069597378332	-0.04270264403766828	-0.02384648674812906	0.2337473587788096	-0.02337747280467683	0.09831799107313789	-0.1992813513399543	0.2747706357766776	0.2747706357766777	0.03943926271413489	0.0002119609354258849	0.07290143101590178	-0.0002377890337429956	0.06438085461556009	-0.07543378629073445	-0.02167596648687362	-0.2627250035636169	0.2291201705084303	0.005416591542613228	0.01748377450086194	30.79317150955059	-9.772611408489889	3.420776584580676	-11.83676078379248	-632.4651638725084	-94.22119430215224	-23.24369262238926	-0.4254981185998242	-1.340011811377823	-0.7715649332292571	7.368110490977976	-0.7474839987534013	3.136311850139142	-6.273376255347618	8.728941291388441	8.728941291388441	1.211878911405791	0.02347099595092044	2.33370406460087	-0.007569167997077136	-8.884416291941892e-08	1.310014686909852e-07	2.990879126250582e-07	7.444359707473019e-08	-2.302419731026206e-07	-1.859969484493706e-07	-2.092865867740861e-08
0.04	-0.03721181641013096	0.05553259710255584	0.9197037761435737	0.3148429184486286	-0.2962657234261026	-0.2989684357684184	-0.3932936679856002	0.2572861143366502	0.2572861143366502	-0.1734741335551205	-0.1745216251329505	0.00114784575335766	0.0004317631210894374	-0.01892445794579682	-0.05581532557596329	-0.03157467768361211	0.3067567108218603	-0.03065075337075701	0.1290652285441655	-0.2602056682297411	0.3612288043080511	0.361228804308051	0.05158282659497744	0.0002356174357223517	0.0961834527783399	-0.0001211000677736069	0.05674328079819898	-0.06630151472756396	-0.02063012987275626	-0.255219749103004	0.2217465111889503	0.002041481216472195	0.02403577199795279	28.29657290913572	-7.983816042280329	3.265982434731425	-10.99306083821378	-633.160153396021	-89.39692364326544	-23.27828541397376	-0.4793685262602864	-1.284135631803157	-0.7800951139338258	7.297760321054468	-0.7028442949464605	2.99370557686249	-5.881158752772141	8.613740439261719	8.613740439261717	1.244216309591754	-0.05055165867222723	2.341390000777147	0.042059479063201	-1.139161008632567e-07	1.185311682466844e-07	3.73231940067442e-07	9.638084935755417e-08	-3.264428589068903e-07	-2.407607277059483e-07	-2.96699079255757e-08
0.05	-0.03742205662166593	0.05491138408515496	0.9193495674018032	0.3182653898999677	-0.296607202594432	-0.2975284375777797	-0.3961883950130996	0.2613201225040524	0.2613201225040524	-0.1728994788400155	-0.1745192130122051	0.002224181775865003	0.0004319276046017594	-0.02308126548315261	-0.06832797438851466	-0.03926720711952446	0.3773321334072104	-0.0375843848045241	0.158748069061889	-0.3183264676865284	0.4451534291244812	0.4451534291244811	0.06327143016348338	0.0002367641974410785	0.1190053715320583	0.000189800640662774	0.05043782912036009	-0.06481945344263763	-0.01975019242655906	-0.2502985828519967	0.215098462046616	0.00474290983354994	0.02951664253729685	26.26357198734848	-8.832733527929021	3.437475619391788	-10.59123473839803	-633.7807148170868	-90.32898729913049	-23.32066935719318	-0.3774942591275288	-1.219914525197086	-0.7639183917276274	6.876603569083261	-0.6795891125943899	2.927571171045749	-5.715550104586474	8.218919500266727	8.21891950026672	1.119738944516457	0.02400196722642244	2.240833696880065	0.0309146411161871	-1.289440119167762e-07	5.365552212044254e-08	4.179792193858158e-07	1.049835322649322e-07	-3.937257152511074e-07	-2.862108804876795e-07	-4.042988943858424e-08
0.06	-0.03767259638690546	0.05416802757578535	0.918918416059012	0.322381449645522	-0.2970162113860996	-0.2957972114056002	-0.3996519319476576	0.2661807961191056	0.2661807961191056	-0.1722102267764181	-0.174517078599116	0.003526385162751691	0.0004362629500749267	-0.02698436868667988	-0.08024402396970641	-0.04696319788774492	0.4454743696648794	-0.04415667803839346	0.1873108248523516	-0.3739676496414929	0.5265618938382338	0.5265618938382337	0.07450229629344694	0.0001800759044610741	0.1413569256542095	0.0007130723243956372	0.04413237744252115	-0.06333739215771125	-0.01887025498036205	-0.2453774166009894	0.2084504129042818	0.007444338450627737	0.03499751307664088	24.29304323092759	-9.692050215113404	3.61001134557789	-10.33901503557833	-633.5044061566035	-91.18267377171395	-23.36959582637322	-0.4286276594945788	-1.164815785531234	-0.7807873803954481	6.811123055518223	-0.6305766549669145	2.769688631410359	-5.385235252407568	8.110508418726209	8.11050841872621	1.152668821883271	-0.06211866961184565	2.24731707446347	0.08453367412282435	-1.435490165749139e-07	-1.342666487661791e-08	4.614887408884419e-07	1.130247596196598e-07	-4.597909703549011e-07	-3.312688805757329e-07	-5.127487020484927e-08
0.07000000000000001	-0.03796125682422395	0.05330853967830698	0.9184101283693801	0.3271673383716958	-0.2974890688642844	-0.2937862824900762	-0.4036589131353991	0.271843297740491	0.2718432977404909	-0.1714108676524735	-0.1745161575006096	0.005049860915065607	0.0004469989706409306	-0.03071493704539618	-0.09154862263183358	-0.05470526401405679	0.5113053824001024	-0.05035006636869167	0.2147139857312925	-0.4269869307439967	0.6055137091111666	0.6055137091111666	0.08528060722131478	2.452851801363441e-05	0.1632602240750946	0.001473626130388366	0.03728516094489866	-0.05957520968556965	-0.01795075030105069	-0.2404927516739703	0.2022229420332216	0.00819946619692225	0.04092211692854446	22.35513943424931	-9.728415141591816	3.670323029411271	-9.96122739652777	-633.6334954352203	-90.24308542955734	-23.42365019707264	-0.3403562097987854	-1.097519270022892	-0.7726475840470874	6.409379252380128	-0.6040687063600999	2.701412662764549	-5.194025964745374	7.723820268856262	7.723820268856284	1.027118843685063	0.01086531837832759	2.150130215732667	0.07769049705312298	-1.539755028457952e-07	-7.416510610950261e-08	4.940447507626007e-07	1.173560053511078e-07	-5.047827038459275e-07	-3.661335017743042e-07	-6.039698330481118e-08
0.08	-0.0382862399022775	0.05233915832151344	0.9178240737474255	0.3325995949991928	-0.2980219299826319	-0.2915061653964372	-0.4081828374192804	0.2782825779520615	0.2782825779520615	-0.1705063840961608	-0.1745161642576598	0.0067900284495547	0.0004665153819099861	-0.03424889683365705	-0.1022227158327399	-0.06251658435229049	0.5747479499295569	-0.05615740607094279	0.2411484604753776	-0.4773562688694434	0.6819176118752777	0.6819176118752778	0.09552718276704403	-5.495206852586425e-06	0.1846952820892453	0.002469150465006113	0.03043794444727618	-0.05581302721342799	-0.01703124562173944	-0.2356080867469512	0.1959954711621614	0.008954593943216826	0.04684672078044806	20.47350168416395	-9.772666402371584	3.729647583718495	-9.724574443237357	-632.9625403506168	-89.23173418017323	-23.48126464849841	-0.3893059454034885	-1.038714693287074	-0.7946382227798151	6.333434014364516	-0.5533669293574971	2.575951404439234	-4.85524665699613	7.600925916961866	7.600925916961865	1.046321745455559	-0.03701393729556303	2.153668993116617	0.1315277798478269	-1.641324072852405e-07	-1.344942734221178e-07	5.258940824671809e-07	1.21447897429441e-07	-5.484148552974206e-07	-4.003404856251668e-07	-6.940794365210837e-08
